<svg width="31" height="30" viewBox="0 0 31 30" fill="none" xmlns="http://www.w3.org/2000/svg">
<path d="M29.9669 12.3968C28.7009 5.11885 22.4538 0.00012207 15.4037 0.00012207C14.5499 0.00012207 13.6852 0.0751108 12.8146 0.230587C4.76314 1.66887 -0.614383 9.44621 0.805509 17.605C2.07191 24.8824 8.31954 30.0006 15.3692 30.0006C16.2225 30.0006 17.0876 29.9256 17.9572 29.7702C26.0097 28.3319 31.3877 20.5555 29.9669 12.3968ZM26.5042 22.8867C24.425 25.8942 21.3133 27.9014 17.743 28.5393C16.9573 28.6793 16.1588 28.7508 15.3687 28.7508C8.77951 28.7508 3.16558 23.972 2.02009 17.388C0.721115 9.92263 5.65989 2.77771 13.0293 1.4614C13.8145 1.32142 14.6136 1.24993 15.4042 1.24993C21.9929 1.24993 27.6068 6.02922 28.7528 12.6137C29.382 16.2307 28.5835 19.8791 26.5042 22.8867Z" fill="#F1D614"/>
<path d="M20.5136 13.8395C21.8764 13.8395 22.9812 12.7203 22.9812 11.3398C22.9812 9.95933 21.8764 8.84021 20.5136 8.84021C19.1507 8.84021 18.0459 9.95933 18.0459 11.3398C18.0459 12.7203 19.1507 13.8395 20.5136 13.8395Z" fill="#F1D614"/>
<path d="M9.33484 15.8353C10.6974 15.8353 11.802 14.7164 11.802 13.3362C11.802 11.9559 10.6974 10.837 9.33484 10.837C7.97226 10.837 6.86768 11.9559 6.86768 13.3362C6.86768 14.7164 7.97226 15.8353 9.33484 15.8353Z" fill="#F1D614"/>
<path d="M20.9504 19.9132C18.1047 19.1389 15.0038 19.6993 12.5949 21.4195C12.0002 21.8544 13.1146 23.4332 13.7063 22.9958C15.297 21.8619 17.8283 21.0786 20.448 21.78C21.1498 21.9679 21.6991 20.1257 20.9504 19.9132Z" fill="#F1D614"/>
</svg>
