<svg width="24" height="25" viewBox="0 0 24 25" fill="none" xmlns="http://www.w3.org/2000/svg">
<path d="M23.8155 10.0462C22.7897 4.14822 17.7272 0 12.0141 0C11.3222 0 10.6215 0.0607708 9.916 0.186769C3.39138 1.35235 -0.966364 7.6551 0.184264 14.267C1.21051 20.1646 6.27335 24.3124 11.9861 24.3124C12.6776 24.3124 13.3787 24.2516 14.0834 24.1256C20.6088 22.96 24.9669 16.6581 23.8155 10.0462ZM21.0095 18.5473C19.3246 20.9846 16.803 22.6112 13.9098 23.1282C13.2731 23.2416 12.626 23.2995 11.9857 23.2995C6.64609 23.2995 2.09678 19.4268 1.16852 14.0911C0.115874 8.0412 4.11807 2.25095 10.09 1.18422C10.7263 1.07078 11.3738 1.01285 12.0145 1.01285C17.3537 1.01285 21.903 4.88598 22.8317 10.2221C23.3416 13.1532 22.6945 16.1099 21.0095 18.5473Z" fill="white"/>
<path d="M16.155 11.2155C17.2594 11.2155 18.1547 10.3085 18.1547 9.18976C18.1547 8.071 17.2594 7.16406 16.155 7.16406C15.0506 7.16406 14.1553 8.071 14.1553 9.18976C14.1553 10.3085 15.0506 11.2155 16.155 11.2155Z" fill="white"/>
<path d="M7.09549 12.8328C8.19967 12.8328 9.09479 11.9261 9.09479 10.8075C9.09479 9.68898 8.19967 8.78223 7.09549 8.78223C5.99131 8.78223 5.09619 9.68898 5.09619 10.8075C5.09619 11.9261 5.99131 12.8328 7.09549 12.8328Z" fill="white"/>
<path d="M16.509 16.1376C14.2029 15.51 11.6901 15.9642 9.73801 17.3583C9.25608 17.7107 10.1591 18.9902 10.6387 18.6357C11.9277 17.7168 13.979 17.082 16.1019 17.6504C16.6706 17.8027 17.1157 16.3098 16.509 16.1376Z" fill="white"/>
</svg>
