<svg width="30" height="30" viewBox="0 0 30 30" fill="none" xmlns="http://www.w3.org/2000/svg">
<path d="M15.195 0.00012207C7.06015 0.00012207 0.465088 6.71612 0.465088 15.0001C0.465088 23.2841 7.06015 30.0001 15.195 30.0001C23.3298 30.0001 29.9249 23.2841 29.9249 15.0001C29.9249 6.71612 23.3298 0.00012207 15.195 0.00012207ZM15.195 28.7501C7.74952 28.7501 1.69258 22.5821 1.69258 15.0001C1.69258 7.41812 7.74952 1.25012 15.195 1.25012C22.6405 1.25012 28.6974 7.41812 28.6974 15.0001C28.6974 22.5821 22.6405 28.7501 15.195 28.7501Z" fill="#FF5656"/>
<path d="M26.3 11.0266C24.4666 9.44965 22.0361 8.78715 19.6754 9.21915C19.3303 9.28665 19.5797 10.3541 19.8654 10.2971C21.9119 9.92315 24.0178 10.4971 25.6057 11.8636C25.8242 12.0566 26.5646 11.2606 26.3 11.0266Z" fill="#FF5656"/>
<path d="M10.5246 10.2217C10.8084 10.2782 11.0598 9.21116 10.7146 9.14366C8.35245 8.71216 5.92349 9.37516 4.0901 10.9512C3.82546 11.1857 4.56588 11.9827 4.78339 11.7882C6.37324 10.4222 8.47814 9.84766 10.5246 10.2217Z" fill="#FF5656"/>
<path d="M24.9239 14.587C22.8494 16.247 19.4939 16.094 17.6115 14.588C17.2835 14.8145 17.0149 14.9045 17.1165 15.1045C19.1851 19.081 23.3497 19.08 25.4193 15.1045C25.5214 14.9045 25.2528 14.8145 24.9239 14.587Z" fill="#FF5656"/>
<path d="M13.2747 15.1045C13.3763 14.9045 13.1078 14.8145 12.7788 14.587C10.7043 16.247 7.34887 16.094 5.46737 14.588C5.1384 14.8145 4.86884 14.9045 4.97048 15.1045C7.04052 19.081 11.2052 19.08 13.2747 15.1045Z" fill="#FF5656"/>
<path d="M18.1476 22H12.2419C11.5968 22 11.5968 24 12.2419 24H18.1472C18.7938 24 18.7938 22 18.1476 22Z" fill="#FF5656"/>
</svg>
