<svg width="24" height="25" viewBox="0 0 24 25" fill="none" xmlns="http://www.w3.org/2000/svg">
<path d="M12 0C5.3728 0 0 5.43731 0 12.1441C0 18.8508 5.3728 24.2882 12 24.2882C18.6272 24.2882 24 18.8508 24 12.1441C24 5.43731 18.6272 0 12 0ZM12 23.2761C5.9344 23.2761 1 18.2825 1 12.1441C1 6.00565 5.9344 1.01201 12 1.01201C18.0652 1.01201 23 6.00565 23 12.1441C23 18.2825 18.0652 23.2761 12 23.2761Z" fill="white"/>
<path d="M7.3999 11.9788C8.50447 11.9788 9.3999 11.0726 9.3999 9.9548C9.3999 8.83697 8.50447 7.93079 7.3999 7.93079C6.29533 7.93079 5.3999 8.83697 5.3999 9.9548C5.3999 11.0726 6.29533 11.9788 7.3999 11.9788Z" fill="white"/>
<path d="M16.6001 11.9788C17.7047 11.9788 18.6001 11.0726 18.6001 9.9548C18.6001 8.83697 17.7047 7.93079 16.6001 7.93079C15.4955 7.93079 14.6001 8.83697 14.6001 9.9548C14.6001 11.0726 15.4955 11.9788 16.6001 11.9788Z" fill="white"/>
<path d="M16.4944 19.1423C13.5979 16.7138 10.385 16.728 7.50563 19.1423C7.1592 19.433 6.84669 18.9298 7.0817 18.4648C7.95957 16.7271 9.73067 15.1801 12 15.1801C14.2693 15.1801 16.0404 16.7276 16.9183 18.4648C17.1533 18.9298 16.8408 19.4326 16.4944 19.1423Z" fill="white"/>
</svg>
