<svg width="31" height="30" viewBox="0 0 31 30" fill="none" xmlns="http://www.w3.org/2000/svg">
<path d="M15.3661 0.00012207C7.18798 0.00012207 0.557861 6.71612 0.557861 15.0001C0.557861 23.2841 7.18798 30.0001 15.3661 30.0001C23.5441 30.0001 30.1742 23.2841 30.1742 15.0001C30.1742 6.71612 23.5441 0.00012207 15.3661 0.00012207ZM15.3661 28.7501C7.88101 28.7501 1.79188 22.5821 1.79188 15.0001C1.79188 7.41812 7.88101 1.25012 15.3661 1.25012C22.8506 1.25012 28.9402 7.41812 28.9402 15.0001C28.9402 22.5821 22.8506 28.7501 15.3661 28.7501Z" fill="#FF8888"/>
<path d="M9.68947 14.796C11.0525 14.796 12.1575 13.6767 12.1575 12.296C12.1575 10.9153 11.0525 9.79602 9.68947 9.79602C8.32641 9.79602 7.22144 10.9153 7.22144 12.296C7.22144 13.6767 8.32641 14.796 9.68947 14.796Z" fill="#FF8888"/>
<path d="M21.0423 14.796C22.4053 14.796 23.5103 13.6767 23.5103 12.296C23.5103 10.9153 22.4053 9.79602 21.0423 9.79602C19.6792 9.79602 18.5742 10.9153 18.5742 12.296C18.5742 13.6767 19.6792 14.796 21.0423 14.796Z" fill="#FF8888"/>
<path d="M20.9122 23.6441C17.3379 20.6445 13.3732 20.662 9.82001 23.6441C9.3925 24.0031 9.00686 23.3816 9.29686 22.8072C10.3802 20.6609 12.5657 18.7501 15.3661 18.7501C18.1665 18.7501 20.3521 20.6615 21.4354 22.8072C21.7254 23.3816 21.3398 24.0026 20.9122 23.6441Z" fill="#FF8888"/>
</svg>
