<svg width="31" height="30" viewBox="0 0 31 30" fill="none" xmlns="http://www.w3.org/2000/svg">
<path d="M15.4786 0.00012207C7.30053 0.00012207 0.67041 6.71612 0.67041 15.0001C0.67041 23.2841 7.30053 30.0001 15.4786 30.0001C23.6567 30.0001 30.2868 23.2841 30.2868 15.0001C30.2868 6.71612 23.6567 0.00012207 15.4786 0.00012207ZM15.4786 28.7501C7.99355 28.7501 1.90443 22.5821 1.90443 15.0001C1.90443 7.41812 7.99355 1.25012 15.4786 1.25012C22.9632 1.25012 29.0528 7.41812 29.0528 15.0001C29.0528 22.5821 22.9632 28.7501 15.4786 28.7501Z" fill="#48BB78"/>
<path d="M9.80055 14.7959C11.1636 14.7959 12.2686 13.6766 12.2686 12.2959C12.2686 10.9152 11.1636 9.7959 9.80055 9.7959C8.43749 9.7959 7.33252 10.9152 7.33252 12.2959C7.33252 13.6766 8.43749 14.7959 9.80055 14.7959Z" fill="#48BB78"/>
<path d="M21.155 14.7959C22.5181 14.7959 23.6231 13.6766 23.6231 12.2959C23.6231 10.9152 22.5181 9.7959 21.155 9.7959C19.792 9.7959 18.687 10.9152 18.687 12.2959C18.687 13.6766 19.792 14.7959 21.155 14.7959Z" fill="#48BB78"/>
<path d="M21.6908 19.1396C17.6876 21.9676 13.2471 21.9511 9.26767 19.1396C8.78887 18.8011 8.35697 19.3871 8.68176 19.9286C9.89505 21.9521 12.3428 23.7536 15.4792 23.7536C18.6156 23.7536 21.0634 21.9516 22.2767 19.9286C22.6015 19.3871 22.1696 18.8016 21.6908 19.1396Z" fill="#48BB78"/>
</svg>
