<svg width="31" height="30" viewBox="0 0 31 30" fill="none" xmlns="http://www.w3.org/2000/svg">
<path d="M15.4327 0.00012207C7.25463 0.00012207 0.624512 6.71612 0.624512 15.0001C0.624512 23.2841 7.25463 30.0001 15.4327 30.0001C23.6108 30.0001 30.2409 23.2841 30.2409 15.0001C30.2409 6.71612 23.6108 0.00012207 15.4327 0.00012207ZM15.4327 28.7501C7.94766 28.7501 1.85853 22.5821 1.85853 15.0001C1.85853 7.41812 7.94766 1.25012 15.4327 1.25012C22.9173 1.25012 29.0069 7.41812 29.0069 15.0001C29.0069 22.5821 22.9173 28.7501 15.4327 28.7501Z" fill="#84BD32"/>
<path d="M9.50954 15.0001C10.8726 15.0001 11.9776 13.8808 11.9776 12.5001C11.9776 11.1194 10.8726 10.0001 9.50954 10.0001C8.14648 10.0001 7.0415 11.1194 7.0415 12.5001C7.0415 13.8808 8.14648 15.0001 9.50954 15.0001Z" fill="#84BD32"/>
<path d="M21.3552 15.0001C22.7183 15.0001 23.8233 13.8808 23.8233 12.5001C23.8233 11.1194 22.7183 10.0001 21.3552 10.0001C19.9922 10.0001 18.8872 11.1194 18.8872 12.5001C18.8872 13.8808 19.9922 15.0001 21.3552 15.0001Z" fill="#84BD32"/>
<path d="M25.1154 6.68668C23.2713 5.10968 20.8289 4.44718 18.4557 4.87918C18.1087 4.94668 18.3604 6.01418 18.6457 5.95718C20.7041 5.58318 22.8201 6.15718 24.4175 7.52368C24.6361 7.71718 25.3825 6.92118 25.1154 6.68668Z" fill="#84BD32"/>
<path d="M12.4092 4.8037C10.0344 4.3722 7.59254 5.0352 5.74941 6.6112C5.48237 6.8457 6.22772 7.6427 6.44639 7.4482C8.04468 6.0822 10.1608 5.5077 12.2181 5.8817C12.5034 5.9387 12.7562 4.8712 12.4092 4.8037Z" fill="#84BD32"/>
<path d="M15.4334 25.5002C16.7964 25.5002 17.9014 24.381 17.9014 23.0002C17.9014 21.6195 16.7964 20.5002 15.4334 20.5002C14.0703 20.5002 12.9653 21.6195 12.9653 23.0002C12.9653 24.381 14.0703 25.5002 15.4334 25.5002Z" fill="#84BD32"/>
</svg>
