<svg width="20" height="20" viewBox="0 0 20 20" fill="none" xmlns="http://www.w3.org/2000/svg">
<path d="M9.37492 13.9583L10.6249 13.9583L10.6249 10.625L13.9583 10.625L13.9583 9.37498L10.6249 9.37498L10.6249 6.04165L9.37492 6.04165L9.37492 9.37498L6.04159 9.37498L6.04159 10.625L9.37492 10.625L9.37492 13.9583ZM10.0014 17.9166C8.90638 17.9166 7.87714 17.7089 6.91367 17.2933C5.9502 16.8778 5.11214 16.3138 4.3995 15.6014C3.68686 14.8891 3.12263 14.0514 2.70679 13.0883C2.2911 12.1253 2.08325 11.0963 2.08325 10.0014C2.08325 8.90644 2.29103 7.8772 2.70659 6.91373C3.12214 5.95026 3.6861 5.1122 4.39846 4.39956C5.11082 3.68692 5.94853 3.12269 6.91159 2.70685C7.87464 2.29116 8.9036 2.08331 9.99846 2.08331C11.0935 2.08331 12.1227 2.29109 13.0862 2.70665C14.0496 3.1222 14.8877 3.68616 15.6003 4.39852C16.313 5.11088 16.8772 5.94859 17.293 6.91165C17.7087 7.8747 17.9166 8.90366 17.9166 9.99852C17.9166 11.0935 17.7088 12.1228 17.2933 13.0862C16.8777 14.0497 16.3137 14.8878 15.6014 15.6004C14.889 16.313 14.0513 16.8773 13.0883 17.2931C12.1252 17.7088 11.0962 17.9166 10.0014 17.9166ZM9.99992 16.6666C11.861 16.6666 13.4374 16.0208 14.7291 14.7291C16.0208 13.4375 16.6666 11.8611 16.6666 9.99998C16.6666 8.13887 16.0208 6.56248 14.7291 5.27081C13.4374 3.97915 11.861 3.33331 9.99992 3.33331C8.13881 3.33331 6.56242 3.97915 5.27075 5.27081C3.97909 6.56248 3.33325 8.13887 3.33325 9.99998C3.33325 11.8611 3.97909 13.4375 5.27075 14.7291C6.56242 16.0208 8.13881 16.6666 9.99992 16.6666Z" fill="#62B2FD"/>
</svg>
