<svg width="30" height="30" viewBox="0 0 30 30" fill="none" xmlns="http://www.w3.org/2000/svg">
<path d="M13.2547 19.1828C13.6986 19.6266 14.2704 19.8373 14.97 19.815C15.6694 19.7925 16.1826 19.5401 16.5097 19.0578L23.2931 9.23094L13.4422 15.9903C12.952 16.3174 12.6872 16.8202 12.6478 17.4987C12.6086 18.1775 12.8109 18.7389 13.2547 19.1828ZM15 5.625C16.1892 5.625 17.3033 5.78083 18.3425 6.0925C19.3819 6.40417 20.3855 6.87573 21.3534 7.50719L19.5912 8.64656C18.8798 8.26844 18.1423 7.98281 17.3787 7.78969C16.615 7.59656 15.8221 7.5 15 7.5C12.2292 7.5 9.86979 8.47396 7.92187 10.4219C5.97396 12.3698 5 14.7292 5 17.5C5 18.375 5.11979 19.2396 5.35937 20.0938C5.59896 20.9479 5.9375 21.75 6.375 22.5H23.625C24.1042 21.7083 24.4531 20.8854 24.6719 20.0312C24.8906 19.1771 25 18.2917 25 17.375C25 16.625 24.9075 15.8658 24.7225 15.0975C24.5373 14.329 24.2516 13.5994 23.8653 12.9088L25.0047 11.1466C25.6218 12.1578 26.0846 13.1695 26.3931 14.1816C26.7015 15.1936 26.8621 16.2453 26.875 17.3366C26.8877 18.468 26.7603 19.5373 26.4928 20.5444C26.2251 21.5517 25.8221 22.5369 25.2837 23.5C25.1185 23.7708 24.8861 23.9844 24.5866 24.1406C24.2868 24.2969 23.9662 24.375 23.625 24.375H6.375C6.04167 24.375 5.72719 24.2949 5.43156 24.1347C5.13594 23.9743 4.8975 23.7467 4.71625 23.4519C4.23875 22.6185 3.85417 21.7099 3.5625 20.7259C3.27083 19.742 3.125 18.6667 3.125 17.5C3.125 15.8671 3.43479 14.332 4.05437 12.8947C4.67396 11.4574 5.51969 10.1985 6.59156 9.11813C7.66364 8.03771 8.92396 7.18542 10.3725 6.56125C11.8212 5.93708 13.3637 5.625 15 5.625Z" fill="white"/>
</svg>
