<svg width="30" height="30" viewBox="0 0 30 30" fill="none" xmlns="http://www.w3.org/2000/svg">
<path d="M12.1152 26.875L11.6393 23.0672C11.3045 22.9551 10.9611 22.7981 10.6093 22.5963C10.2576 22.3942 9.94311 22.1778 9.66582 21.9472L6.13926 23.4375L3.25488 18.4375L6.3052 16.1322C6.27645 15.9464 6.25603 15.7597 6.24395 15.5722C6.23186 15.3847 6.22582 15.1979 6.22582 15.0119C6.22582 14.8342 6.23186 14.6535 6.24395 14.47C6.25603 14.2865 6.27645 14.0857 6.3052 13.8678L3.25488 11.5625L6.13926 6.58656L9.65363 8.065C9.95509 7.82625 10.2769 7.60792 10.6189 7.41C10.961 7.21208 11.2972 7.05302 11.6274 6.93281L12.1152 3.125H17.8846L18.3605 6.94469C18.7355 7.08094 19.0748 7.24 19.3783 7.42188C19.6821 7.60375 19.9886 7.81813 20.298 8.065L23.8605 6.58656L26.7449 11.5625L23.6464 13.9037C23.6912 14.1056 23.7157 14.2944 23.7199 14.47C23.7238 14.6454 23.7258 14.8221 23.7258 15C23.7258 15.1698 23.7218 15.3425 23.7136 15.5181C23.7057 15.6935 23.677 15.8943 23.6274 16.1203L26.7018 18.4375L23.8171 23.4375L20.298 21.935C19.9886 22.1819 19.6729 22.4002 19.3508 22.59C19.0287 22.78 18.6986 22.9351 18.3605 23.0553L17.8846 26.875H12.1152ZM13.7499 25H16.2068L16.6561 21.6516C17.294 21.4849 17.877 21.2481 18.4049 20.9412C18.933 20.6342 19.4423 20.2395 19.9327 19.7572L23.0383 21.0625L24.2693 18.9375L21.5577 16.8944C21.6619 16.5706 21.7327 16.2532 21.7702 15.9422C21.8079 15.6314 21.8268 15.3173 21.8268 15C21.8268 14.6746 21.8079 14.3605 21.7702 14.0578C21.7327 13.7549 21.6619 13.4455 21.5577 13.1297L24.293 11.0625L23.0624 8.9375L19.9205 10.2619C19.5022 9.81479 19.001 9.41979 18.4171 9.07688C17.8329 8.73396 17.242 8.49115 16.6443 8.34844L16.2499 5H13.7693L13.3555 8.33656C12.7178 8.48719 12.1289 8.71792 11.5889 9.02875C11.0487 9.33979 10.5334 9.74042 10.043 10.2306L6.93738 8.9375L5.70676 11.0625L8.40613 13.0744C8.30197 13.371 8.22905 13.6796 8.18738 14C8.14572 14.3204 8.12488 14.6577 8.12488 15.0119C8.12488 15.3373 8.14572 15.6562 8.18738 15.9688C8.22905 16.2812 8.29801 16.5898 8.39426 16.8944L5.70676 18.9375L6.93738 21.0625L10.0311 19.75C10.5055 20.2371 11.0127 20.6361 11.5527 20.9472C12.0929 21.258 12.6899 21.4968 13.3436 21.6634L13.7499 25ZM15.0143 18.75C16.0543 18.75 16.9393 18.385 17.6693 17.655C18.3993 16.925 18.7643 16.04 18.7643 15C18.7643 13.96 18.3993 13.075 17.6693 12.345C16.9393 11.615 16.0543 11.25 15.0143 11.25C13.9613 11.25 13.0731 11.615 12.3496 12.345C11.626 13.075 11.2643 13.96 11.2643 15C11.2643 16.04 11.626 16.925 12.3496 17.655C13.0731 18.385 13.9613 18.75 15.0143 18.75Z" fill="white" fill-opacity="0.7"/>
</svg>
