<svg width="30" height="30" viewBox="0 0 30 30" fill="none" xmlns="http://www.w3.org/2000/svg">
<path d="M11.755 25.625V19.6394C10.4852 19.5404 9.24104 19.4019 8.0225 19.2238C6.80396 19.0456 5.58812 18.7916 4.375 18.4616L4.83187 16.5866C6.48875 17.0257 8.16396 17.3318 9.8575 17.5047C11.5508 17.6778 13.2641 17.7644 14.9972 17.7644C16.7105 17.7644 18.4146 17.6778 20.1094 17.5047C21.8042 17.3318 23.4904 17.0257 25.1681 16.5866L25.625 18.4616C24.399 18.7916 23.1742 19.0464 21.9506 19.2259C20.7271 19.4055 19.4919 19.5451 18.245 19.6447V25.625H11.755ZM15.0016 16.1297C14.3482 16.1297 13.8 15.9089 13.3569 15.4672C12.9138 15.0255 12.6922 14.4783 12.6922 13.8256C12.6922 13.1919 12.913 12.6482 13.3547 12.1947C13.7964 11.7411 14.3436 11.5144 14.9966 11.5144C15.6303 11.5144 16.174 11.7402 16.6275 12.1919C17.081 12.6433 17.3078 13.1861 17.3078 13.8203C17.3078 14.4739 17.082 15.0221 16.6303 15.465C16.1786 15.9081 15.6357 16.1297 15.0016 16.1297ZM5.9375 12.5C5.49208 12.5 5.12031 12.3509 4.82219 12.0528C4.52406 11.7549 4.375 11.3821 4.375 10.9344C4.375 10.5038 4.52406 10.1363 4.82219 9.83187C5.12031 9.52729 5.49323 9.375 5.94094 9.375C6.37135 9.375 6.73875 9.52688 7.04313 9.83063C7.34771 10.1346 7.5 10.5035 7.5 10.9375C7.5 11.3831 7.34812 11.7549 7.04437 12.0528C6.74042 12.3509 6.37146 12.5 5.9375 12.5ZM24.0625 12.5C23.6169 12.5 23.2451 12.3509 22.9472 12.0528C22.6491 11.7549 22.5 11.3821 22.5 10.9344C22.5 10.5038 22.6491 10.1363 22.9472 9.83187C23.2451 9.52729 23.6179 9.375 24.0656 9.375C24.4963 9.375 24.8638 9.52688 25.1681 9.83063C25.4727 10.1346 25.625 10.5035 25.625 10.9375C25.625 11.3831 25.4731 11.7549 25.1694 12.0528C24.8654 12.3509 24.4965 12.5 24.0625 12.5ZM9.18281 7.8725C8.73719 7.8725 8.36531 7.72354 8.06719 7.42562C7.76927 7.1275 7.62031 6.75458 7.62031 6.30688C7.62031 5.87646 7.76927 5.50896 8.06719 5.20437C8.36531 4.89979 8.73823 4.7475 9.18594 4.7475C9.61656 4.7475 9.98406 4.89948 10.2884 5.20344C10.593 5.50719 10.7453 5.87604 10.7453 6.31C10.7453 6.75562 10.5933 7.1275 10.2894 7.42562C9.98563 7.72354 9.61677 7.8725 9.18281 7.8725ZM20.8172 7.8725C20.3718 7.8725 20 7.72354 19.7019 7.42562C19.4038 7.1275 19.2547 6.75458 19.2547 6.30688C19.2547 5.87646 19.4038 5.50896 19.7019 5.20437C20 4.89979 20.3729 4.7475 20.8206 4.7475C21.251 4.7475 21.6185 4.89948 21.9231 5.20344C22.2275 5.50719 22.3797 5.87604 22.3797 6.31C22.3797 6.75562 22.2278 7.1275 21.9241 7.42562C21.6203 7.72354 21.2514 7.8725 20.8172 7.8725ZM15 6.25C14.5546 6.25 14.1828 6.10094 13.8847 5.80281C13.5866 5.5049 13.4375 5.13208 13.4375 4.68438C13.4375 4.25375 13.5866 3.88625 13.8847 3.58187C14.1828 3.27729 14.5557 3.125 15.0034 3.125C15.4339 3.125 15.8013 3.27688 16.1056 3.58063C16.4102 3.88458 16.5625 4.25354 16.5625 4.6875C16.5625 5.13313 16.4106 5.5049 16.1069 5.80281C15.8029 6.10094 15.434 6.25 15 6.25Z" fill="white"/>
</svg>
