<svg width="16" height="16" viewBox="0 0 16 16" fill="none" xmlns="http://www.w3.org/2000/svg">
<path d="M4.78951 11.6465C4.59425 11.8417 4.59425 12.1583 4.78951 12.3535C4.98477 12.5488 5.30136 12.5488 5.49662 12.3535L10.1431 7.70713L12.7895 10.3535C12.9325 10.4965 13.1476 10.5393 13.3344 10.4619C13.5213 10.3845 13.6431 10.2022 13.6431 10V4C13.6431 3.72386 13.4192 3.5 13.1431 3.5H7.14306C6.94083 3.5 6.75852 3.62182 6.68112 3.80866C6.60374 3.99549 6.64651 4.21055 6.78951 4.35355L9.43593 7L4.78951 11.6465Z" fill="#7A7A7A"/>
<path d="M5.14272 12L0.571289 7.42859" stroke="#7A7A7A" stroke-linecap="round"/>
</svg>
