<svg width="15" height="15" viewBox="0 0 15 15" fill="none" xmlns="http://www.w3.org/2000/svg">
<path d="M5.24566 2.49947C6.17451 0.833158 6.63899 0 7.33336 0C8.02774 0 8.49212 0.833158 9.42098 2.49947L9.66133 2.93057C9.92524 3.40409 10.0572 3.64084 10.263 3.79706C10.4688 3.95327 10.7251 4.01126 11.2377 4.12724L11.7043 4.23282C13.5081 4.64094 14.41 4.845 14.6245 5.53502C14.8391 6.22499 14.2243 6.94402 12.9946 8.38191L12.6764 8.75398C12.327 9.16254 12.1523 9.36687 12.0737 9.61968C11.9951 9.87241 12.0215 10.145 12.0744 10.6902L12.1224 11.1865C12.3084 13.1051 12.4013 14.0644 11.8395 14.4909C11.2778 14.9173 10.4333 14.5284 8.74448 13.7508L8.3076 13.5497C7.82763 13.3287 7.58774 13.2182 7.33336 13.2182C7.07899 13.2182 6.83901 13.3287 6.35913 13.5497L5.92216 13.7508C4.23329 14.5284 3.38887 14.9173 2.82711 14.4909C2.26535 14.0644 2.35831 13.1051 2.54422 11.1865L2.59232 10.6902C2.64516 10.145 2.67156 9.87241 2.59297 9.61968C2.51437 9.36687 2.33965 9.16254 1.99021 8.75398L1.67208 8.38191C0.442387 6.94402 -0.172458 6.22499 0.0421064 5.53502C0.25668 4.845 1.15856 4.64094 2.96233 4.23282L3.42899 4.12724C3.94151 4.01126 4.19781 3.95327 4.40361 3.79706C4.6094 3.64084 4.7414 3.40409 5.00531 2.93057L5.24566 2.49947Z" fill="#62B2FD"/>
</svg>
