<svg width="13" height="16" viewBox="0 0 13 16" fill="none" xmlns="http://www.w3.org/2000/svg">
<path d="M0.647397 5.34797C1.42396 5.99679 2.59222 5.90817 3.25681 5.15002C3.49886 4.87388 3.63949 4.54688 3.6845 4.21152L4.64156 5.01115C3.84137 5.91415 3.33254 6.80365 2.7929 8.1805C2.36857 9.57173 3.18586 10.1535 3.92708 10.5197C4.23712 10.673 4.48203 10.7775 4.70017 10.7652C4.76806 10.7776 4.83783 10.7848 4.90941 10.7848H6.20314V8.57239H6.2009C6.20166 8.57117 6.20238 8.56993 6.20314 8.5687V5.30632C6.20314 4.80368 6.62194 4.39481 7.13678 4.39481C7.65163 4.39481 8.07042 4.80368 8.07042 5.30632V6.12089C8.09146 6.09536 8.11335 6.06899 8.13387 6.04397C8.78209 5.38078 8.98038 4.29257 8.38387 3.77604C7.78729 3.25927 6.59841 3.11596 5.57935 4.05824C5.46848 4.16198 5.36268 4.26342 5.26059 4.36355L4.2739 3.53915C4.60633 3.44393 4.91553 3.25778 5.15759 2.98164C5.82216 2.2235 5.73139 1.08292 4.95483 0.434105C4.17827 -0.21472 3.01 -0.126099 2.34541 0.632055C1.9585 1.07345 1.82942 1.64413 1.94083 2.17227C1.38915 2.14637 0.831554 2.35903 0.444639 2.80043C-0.219935 3.55857 -0.129153 4.69915 0.647397 5.34797ZM3.03413 1.20744C3.37263 0.821288 3.96986 0.775978 4.36546 1.10651C4.76098 1.43698 4.8074 2.02004 4.46889 2.40619C4.13034 2.7924 3.53312 2.83771 3.13759 2.50724C2.74198 2.17672 2.69558 1.59365 3.03413 1.20744ZM1.13336 3.37582C1.47186 2.98966 2.06909 2.94436 2.46468 3.27489C2.86022 3.60536 2.90662 4.18842 2.56812 4.57457C2.22957 4.96078 1.63234 5.00609 1.23682 4.67562C0.841217 4.3451 0.794806 3.76203 1.13336 3.37582Z" fill="#7A7A7A"/>
<path d="M9.15208 4.41971C8.63058 5.39448 9.01727 6.5974 10.0156 7.1065C11.0142 7.61567 12.2462 7.23818 12.7677 6.26341C13.2892 5.28864 12.9027 4.0858 11.9041 3.57663C10.9057 3.06752 9.67359 3.44493 9.15208 4.41971ZM11.2082 5.94795C11.421 5.94795 11.5934 6.11634 11.5934 6.32406C11.5934 6.53178 11.421 6.70017 11.2082 6.70017C10.9954 6.70017 10.8229 6.53178 10.8229 6.32406C10.8229 6.11634 10.9954 5.94795 11.2082 5.94795Z" fill="#7A7A7A"/>
<path d="M7.4346 12.8289L6.98084 14.6293C6.83132 15.2225 7.20268 15.8217 7.81038 15.9677C7.90129 15.9895 7.99229 16 8.08196 16C8.59132 16 9.0542 15.6624 9.18131 15.1578L10.4957 9.94289C10.5789 9.61284 10.5021 9.26378 10.2872 8.99621C10.0725 8.72865 9.7436 8.57239 9.39545 8.57239H8.07052V11.9657C8.07052 12.3667 7.80372 12.7072 7.4346 12.8289Z" fill="#7A7A7A"/>
<path d="M7.86196 5.30636C7.86196 4.91538 7.53727 4.59839 7.13679 4.59839C6.73632 4.59839 6.41162 4.91538 6.41162 5.30636V11.9658C6.41162 12.3567 6.73632 12.6737 7.13679 12.6737C7.53727 12.6737 7.86196 12.3567 7.86196 11.9658V5.30636Z" fill="#7A7A7A"/>
<path d="M5.95071 11.1029H1.19178L0.617676 15.6163H6.5248L5.95071 11.1029Z" fill="#7A7A7A"/>
</svg>
