<svg width="18" height="18" viewBox="0 0 18 18" fill="none" xmlns="http://www.w3.org/2000/svg">
<path d="M8.92629 7.53242C7.71333 7.53242 6.73003 6.54912 6.73003 5.33616C6.73003 4.12319 7.71333 3.13989 8.92629 3.13989C10.1393 3.13989 11.1226 4.12319 11.1226 5.33616C11.1226 6.54912 10.1393 7.53242 8.92629 7.53242Z" fill="#7A7A7A"/>
<path d="M3.75772 15.1159L5.27138 8.96099L0.95009 3.09446C0.602983 2.62329 0.70363 1.95984 1.17486 1.6128C1.64603 1.26569 2.30948 1.36634 2.65652 1.83757L7.0244 7.76743C7.08625 7.77979 9.68751 8.41197 9.8416 8.47165L15.1961 3.02075C15.6062 2.60333 16.2772 2.59728 16.6947 3.0074C17.1121 3.41753 17.1181 4.08852 16.708 4.506L10.6241 10.6994C10.4612 11.3617 9.19027 16.5298 9.00343 17.2895L3.75772 15.1159Z" fill="#7A7A7A"/>
</svg>
